<svg xmlns="http://www.w3.org/2000/svg" viewBox="0 0 32 32">
  <defs>
    <linearGradient id="grad" x1="0%" y1="0%" x2="100%" y2="100%">
      <stop offset="0%" style="stop-color:#8b5cf6"/>
      <stop offset="100%" style="stop-color:#06b6d4"/>
    </linearGradient>
  </defs>
  <rect width="32" height="32" rx="7" fill="url(#grad)"/>
  <path fill="white" d="M10.5 8.5c-.69 0-1.25.56-1.25 1.25v2.917c0 .69.56 1.25 1.25 1.25h.833c.23 0 .417.187.417.416v1.459c0 .37.447.556.71.293l2.04-2.04v4.622c0 2.761 2.239 5 5 5s5-2.239 5-5v-4.339c0-.69-.56-1.25-1.25-1.25h-.833a.417.417 0 01-.417-.416V11.25c0-.69-.56-1.25-1.25-1.25h-2.5c-.69 0-1.25.56-1.25 1.25v1.417c0 .23-.187.416-.417.416h-.833c-.69 0-1.25-.56-1.25-1.25V9.75c0-.69-.56-1.25-1.25-1.25h-2.5z" opacity="0"/>
  <g transform="translate(8, 8)">
    <path fill="white" d="M4.285 3.168a1.5 1.5 0 011.852-.072l.095.072 1.768 1.473a1.5 1.5 0 01.176 2.003l-.087.106-.724.794c-.08.088-.117.21-.1.329.177 1.237.72 2.4 1.56 3.335.737.82 1.688 1.437 2.745 1.782a.375.375 0 00.312-.047l.06-.05.765-.848a1.5 1.5 0 011.872-.266l.11.075 1.473 1.105a1.5 1.5 0 01.266 2.083l-.078.097-1.125 1.25a1.875 1.875 0 01-1.614.565c-2.105-.299-4.034-1.32-5.52-2.919-1.598-1.718-2.595-3.95-2.782-6.232a1.875 1.875 0 01.444-1.365l.532-.59z"/>
  </g>
</svg>
